<?xml version="1.0" encoding="utf-8"?>
<!-- Generator: Adobe Illustrator 25.0.1, SVG Export Plug-In . SVG Version: 6.00 Build 0)  -->
<svg version="1.1" xmlns="http://www.w3.org/2000/svg" xmlns:xlink="http://www.w3.org/1999/xlink" x="0px" y="0px"
	 viewBox="0 0 170.27 155.19" style="enable-background:new 0 0 170.27 155.19;" xml:space="preserve">
<style type="text/css">
	.st0{fill:#D0809D;stroke:#AB4A72;stroke-miterlimit:10;}
	.st1{fill:#D0809D;stroke:#A33A69;stroke-miterlimit:10;}
	.st2{fill:none;stroke:#7F2E4E;stroke-miterlimit:10;}
	.st3{fill:#D0809D;}
	.st4{fill:none;stroke:#A33A69;stroke-miterlimit:10;}
	.st5{fill:#AF6884;stroke:#AB4A72;stroke-miterlimit:10;}
</style>
<g id="LC">
	<g>
		<path class="st0" d="M106.1,89c0,0-20.85-12.73-26.79-0.86c-2.17,4.33-4.57,9.31-6.76,14.92c-0.96,2.46-4.86,4.63-3.67,7.6
			c1.73,4.32-0.06,5.77-0.99,9.65c-1.13,4.7-0.71-0.73-4.99,17.02c-0.85,3.54-0.9,7.51-1.24,11.73c0,0,7.16,12.1,16.67-12.94
			l6.31-10.76c0,0,6.25,3.74,10.73-12.49c0,0,32.11-1.37,34.88-9.99c0,0,0.28-2.39-1.6-5.05c-1.38-1.94-4.41-1.44-6.76-1.77
			C118.23,95.52,114.76,94.17,106.1,89z"/>
		<path class="st0" d="M66.27,152.48c-3.13,0-4.96-3.03-5.04-3.17l-0.08-0.14l0.01-0.16c0.08-1.06,0.15-2.1,0.22-3.12
			c0.2-3.08,0.38-5.99,1.03-8.69c2.84-11.77,3.63-13.43,4.16-14.53c0.26-0.55,0.45-0.94,0.83-2.49c0.26-1.1,0.6-2.01,0.89-2.82
			c0.76-2.07,1.3-3.57,0.12-6.52c-0.88-2.19,0.64-3.97,1.98-5.55c0.71-0.83,1.38-1.62,1.69-2.42c2.25-5.76,4.69-10.8,6.77-14.97
			c1.24-2.47,3.19-4.11,5.81-4.86c8.49-2.44,21.11,5.17,21.69,5.52c8.84,5.28,12.19,6.49,15.6,6.98c0.58,0.08,1.21,0.11,1.87,0.15
			c2,0.09,4.07,0.19,5.23,1.83c1.97,2.78,1.71,5.29,1.69,5.4c-2.73,8.54-31.24,10.23-35,10.42c-1.99,7.07-4.58,11.28-7.69,12.53
			c-1.44,0.58-2.6,0.34-3.21,0.12l-6.08,10.38c-3.91,10.3-7.98,15.74-12.07,16.09C66.55,152.48,66.41,152.48,66.27,152.48z
			 M62.17,148.93c0.38,0.56,2.02,2.76,4.44,2.54c2.53-0.22,6.53-3.09,11.25-15.52l6.6-11.27l0.43,0.26c0.04,0.03,1.19,0.67,2.82,0
			c1.96-0.8,4.79-3.57,7.17-12.2l0.1-0.35l0.36-0.02c0.32-0.01,31.79-1.45,34.43-9.64l0,0c-0.01,0,0.18-2.2-1.54-4.61
			c-0.88-1.24-2.62-1.33-4.47-1.42c-0.65-0.03-1.33-0.06-1.96-0.15c-3.54-0.51-6.99-1.75-15.98-7.11l0,0
			c-0.13-0.08-12.81-7.73-20.89-5.41c-2.34,0.67-4.08,2.13-5.19,4.34c-2.08,4.15-4.5,9.17-6.74,14.88c-0.37,0.95-1.13,1.84-1.86,2.7
			c-1.27,1.49-2.46,2.89-1.81,4.53c1.32,3.31,0.69,5.04-0.11,7.24c-0.3,0.82-0.61,1.67-0.86,2.71c-0.4,1.65-0.62,2.11-0.9,2.69
			c-0.51,1.06-1.28,2.66-4.09,14.33c-0.63,2.61-0.81,5.48-1.01,8.51C62.31,146.94,62.25,147.93,62.17,148.93z"/>
	</g>
</g>
<g id="VTA">
	<path class="st1" d="M87.49,97.57c0,0,4.78,3.33,8.26,4.94c1.87,0.87,2.92,2.57,2.57,4.34l-1.17,5.97c0,0,18.46-1.47,27.51-5.18
		l4.17-2.6c0,0,1.68-1.39,1.44-2.18c-1.92-6.27-4.88-5.61-4.88-5.61l-0.8-0.05c-3.76-0.23-7.05-1.7-10.47-3.27l-1.72-0.73
		c0,0-2.5-2.34-8.78-5.58C95.61,83.5,88.34,84.04,87.49,97.57z"/>
</g>
<g id="NAc">
	<path class="st2" d="M154.17,64.17c-2.38-0.58-4.67-0.15-6.75,0.89c0.36-0.51,1.01-1.35,1.69-2.75c0.23-0.46,2.32-8.3,2.28-8.57
		c-0.02-0.14-2.75,1.34-2.79,1.66c-0.48,4.23-2.01,7.93-4.19,11.23c-0.45,0.68-0.99,1.28-1.57,1.85c-0.93,0.9-2.28,2.26-3.02,3.03
		c-0.43,0.45-0.88,0.87-1.36,1.26c-2.13,1.77-7.68,6.39-8.21,6.73c-3.4,2.18-6.76,4.42-10.06,6.75c-0.41,0.15-0.82,0.28-1.24,0.39
		c-0.65,0.17-1.3,0.27-1.95,0.33c-1.51,0.03-3.05-0.09-4.55-0.27c-0.59-0.11-1.19-0.24-1.77-0.38c-0.99-0.25-1.97-0.52-2.95-0.79
		c-0.52-0.24-1.01-0.54-1.48-0.89c8.29-2.32,7.1-13.41,2.73-18.79c-1.6-1.97-3.67-3.45-5.97-4.4c0.09-0.08,0.29-0.25,0.29-0.37V55.9
		c0-0.25-0.63,0.2-0.69,0.25c-0.21,0.15-0.41,0.31-0.6,0.49c-0.08,0.08-0.29,0.25-0.29,0.37v3.96c-1.68-0.53-3.45-0.79-5.23-0.74
		c-0.36,0.01-0.8,0.43-1.05,0.65c-0.06,0.05-0.62,0.62-0.41,0.61c8.48-0.21,15.7,6.56,15.83,15.09c0.03,1.9-0.28,4.17-1.5,5.71
		c-1.39,1.75-4.34,1.52-6.35,1.43c-1.96-0.09-3.9-0.21-5.85,0.11c-1.94,0.31-3.82,0.94-5.61,1.75c-4.14,1.87-7.79,4.66-11.36,7.43
		c-0.1,0.08-0.8,0.6-0.67,0.77c0.12,0.16,0.85-0.42,0.9-0.47c0.42-0.32,0.84-0.65,1.26-0.97c-0.6,0.51-1.19,1.02-1.78,1.53
		c-1.05,0.91,0.12,0.42,0.64-0.04c4.55-3.94,9.59-8.17,15.85-8.69c3.37-0.28,6.55,0.68,9.74,1.61c1.82,0.89,3.95,1.28,6.06,1.42
		c0.42,0.05,0.84,0.1,1.27,0.12c0.59,0.03,1.16,0.01,1.73-0.04c0.18,0,0.36,0,0.54,0c0.83-0.01,1.63-0.12,2.4-0.3
		c0.02,0.01,0.07,0.01,0.14-0.01c5.66-1.73,11.74,1.12,14.17,6.47c0.06,0.12,1.75-0.86,1.58-1.23c-0.93-2.05-2.38-3.7-4.13-4.89
		c0.21-0.13,0.44-0.28,0.63-0.39c0.38-0.22,0.77-0.41,1.17-0.6c0.7-0.32,1.43-0.59,2.17-0.81c0.25-0.07,0.63-0.26,0.84-0.41
		c0.19-0.14,0.39-0.29,0.56-0.46c0.1-0.1,0.51-0.53,0.12-0.43c-2.01,0.56-3.88,1.49-5.6,2.67c-0.08,0.06-0.16,0.13-0.24,0.2
		c-2.11-1.33-4.61-1.98-7.16-1.84c1.55-0.87,3.03-1.91,4.49-2.92c3.25-2.24,6.41-4.68,9.42-7.27c0.22-0.18,7.55-6.68,8.09-7.21
		c0.28-0.27,2.1-2.46,2.34-2.86c1.84-0.86,4-1,5.97-0.52c0.29,0.07,0.85-0.48,1.05-0.65C153.84,64.72,154.39,64.23,154.17,64.17z"/>
</g>
<g id="Layer_1">
	<path class="st3" d="M69.65,94.51c-4.14-2.83-10.37-3.74-15.25-4.39c-0.54-0.61-1.1-1.22-1.72-1.82
		c-5.72-5.59-10.86-10.82-19.03-12.35c-1.75-0.33-4.19,5.56-4.93,7.76c-3.47,1.54-6.87,6.39-6.83,10.07c-0.66,0.87-1.35,1.94-1.92,3
		c-1.25,0.59-2.03,1.6-2.93,2.94c-0.78,1.15-1.68,2.48-2.11,3.81c-0.19,0.4-0.34,0.8-0.46,1.23c-0.27,1.05,0.08,0.81,1.05-0.73
		c-0.06,0.62-1.75,2.72-2.09,3.3c-0.19,0.33-0.37,0.65-0.54,0.98c-0.44-0.11-0.9-0.05-1.36,0.23c-2.12,1.29-4.13,5.64-4.55,7.96
		c-0.14,0.28-0.13,0.55,0.02,0.81c0.48,0.29,0.98,0.24,1.48-0.02c0.06,0.06,0.13,0.13,0.19,0.2c-0.08,0.36-0.08,0.66,0.02,0.85
		c1.31,2.44,2.41,4.75,4.72,6.4c0.07,0.05,0.17,0.02,0.29-0.03c0.24,0.49,0.47,1,0.68,1.53c0.03,0.08,0.28-0.21,0.65-0.7
		c1.11-0.3,3.62,0.87,4.6,1.01c1.09,0.15,2.25,0.09,3.33-0.03c2.16-0.24,4.14-0.98,6.04-1.95c-0.01,0.06-0.03,0.13-0.04,0.19
		c-0.54,3.88,3.93,7.08,6.64,9.11c3.18,2.38,7.68,5.78,11.54,6.78c1.51,0.39,1.87-0.05,3.25-0.41c2.39-0.63,1.63-0.56,3.67,0.33
		c1.2,0.52,2.35,0.74,3.65,0.92c0.16,0.02,0.32-0.02,0.48-0.09c-0.11,0.43-0.21,0.85-0.32,1.28c-0.45,1.8,1.26-0.18,1.6-0.54
		c1.42-1.5,2.6-3.75,3.32-5.66c0.12-0.32,0.24-0.64,0.36-0.96c0.36-0.68,0.65-1.36,0.77-2.07c1.55-4.28,2.9-8.58,3.63-13.12
		c0.89-5.61,1.93-10.62,3.86-15.96C72.69,100.77,73.17,96.91,69.65,94.51z"/>
	<path class="st4" d="M79.03,88.91c-2.03,3.98-3.92,8.04-5.69,12.14c-0.06-1.32-0.32-2.61-0.88-3.82c-1.43-3.08-4.47-4.03-7.64-4.29
		c-1.94-0.16-3.88-0.24-5.83-0.36c-1.72-0.1-3.54-0.18-5.08-1.05c-1.44-0.81-2.36-2.21-3.28-3.54c-0.97-1.39-2.03-2.7-3.24-3.88
		c-1.37-1.33-2.89-2.49-4.53-3.46c-1.57-0.93-6.05-6.04-10.36-2.97c-1.16,0.83-1.99,2.06-2.62,3.33c-0.53,1.07-0.87,2.2-0.97,3.38
		c-0.12,0.1-0.24,0.2-0.36,0.3c-0.8,0.41-1.46,1.09-1.97,1.87c-1.65,1.79-3,3.86-4.02,6.09c-0.52,1.14-4.45,6.92-5.3,7.73
		c-1.04,0.99-1.84,2.36-2.15,3.77c-0.26,1.18-0.21,2.37-0.7,3.49c-0.57,1.3-1.7,2.26-2.7,3.25c-1.28,1.27-2.45,2.62-3.3,4.22
		c-0.9,1.68-1.3,3.37-0.74,5.24c0.58,1.9,1.43,3.95,2.77,5.44c0.95,1.06,3.35,2.8,4.88,1.92c0.28-0.16,0.48-0.38,0.64-0.62
		c0.47,0.96,1.64,1.32,2.62,1.55c1.35,0.33,2.76,0.38,4.15,0.43c1.41,0.05,2.49-0.23,3.68-0.97c0.88-0.54,1.61-1.18,2.23-1.97
		c-0.79,2.48-0.24,4.97,1.81,6.76c1.06,0.92,2.31,1.59,3.46,2.39c1.5,1.03,2.78,2.31,4.09,3.57c2.31,2.22,5.12,4.64,8.54,4.54
		c0.88-0.03,1.7-0.35,2.57-0.4c0.68-0.05,1.29,0.12,1.92,0.35c0.18,0.06,0.35,0.12,0.53,0.18c0.8,0.48,3.57,0.81,3.89,0.82
		c2.32,0.04,4.56-0.75,6.01-2.61c1.88-2.41,2.06-5.17,2.65-8.06c0.7-3.45,2.4-6.6,3.19-10.03c0.85-3.65,1.08-7.41,2.11-11.02
		c0.75-2.65,4.33-11.52,4.54-12c1.74-4.06,3.61-8.06,5.61-11.99C80.21,87.37,79.35,88.3,79.03,88.91z M70.76,107.31
		c-1.17,2.99-2.29,6.02-2.96,9.17c-0.7,3.29-0.91,6.68-1.85,9.92c-0.88,3.06-2.35,5.92-2.92,9.07c-0.31,1.69-0.27,4.1-1.52,5.43
		c-0.85,0.9-2.21,1.39-3.41,1.59c-1.22,0.2-2.49,0.13-3.7-0.12c-0.66-0.14-1.3-0.41-1.94-0.65c-1.25-0.77-2.29-1.79-2.66-3.28
		c-0.05-0.22-0.5,0.45-0.53,0.5c-0.14,0.22-0.27,0.44-0.37,0.68c-0.05,0.12-0.17,0.32-0.14,0.45c0.12,0.47,0.31,0.87,0.53,1.26
		c-1.04,0.15-2.05,0.42-3.16,0.23c-1.51-0.27-2.91-0.99-4.16-1.87c-2.81-1.99-4.93-4.76-7.84-6.65c-1.27-0.82-2.61-1.61-3.58-2.8
		c-1.23-1.52-1.66-3.72-0.88-5.55c0.25-0.58,0.09-0.47-0.15-0.19c-0.13-0.1-0.47,0.46-0.51,0.52c-0.54,0.82-1.68,1.43-2.54,1.86
		c-1.16,0.58-2.38,0.49-3.64,0.43c-1.12-0.05-2.25-0.14-3.35-0.42c-0.91-0.23-3.01-2.53-3.06-3.11c-0.14-1.4-0.45-2.75-0.67-4.14
		c-0.09-0.58-0.17-1.18-0.11-1.77c0.1-1.12,0.85-1.91,1.61-2.66c1.93-1.92,4-3.71,6.11-5.42c0.32-0.26,0.59-0.77,0.74-1.15
		c0.05-0.12,0.29-0.68-0.02-0.43c-1.66,1.34-3.28,2.74-4.84,4.2c-1.27,1.19-2.53,2.39-3.44,3.88c-0.82,1.34-1.32,2.72-1.17,4.31
		c0.1,1.06,0.38,2.1,0.54,3.15c0.12,0.74,0.3,1.62,0.34,2.46c-0.66-0.06-1.66-0.43-1.91-0.55c-0.82-0.37-1.54-0.94-2.14-1.61
		c-1.27-1.42-2.09-3.33-2.66-5.12c-0.31-0.96-0.49-1.95-0.26-2.95c0.3-1.33,1.28-2.31,2.2-3.24c1.15-1.17,2.35-2.29,3.28-3.65
		c0.81-1.17,1.5-2.48,1.77-3.89c0.15-0.81,0.1-1.69,0.35-2.48c0.27-0.85,1.04-1.31,1.75-1.81c1.15-0.81,2.31-1.71,3.07-2.87
		c0,0.02-0.56,4.1,0.73,5.55c0.04,0.04-0.31-3.34-0.17-4.83c0.15-1.61,4.44-10.17,4.48-10.23c0.25-0.35,1.29-1.82,1.65-2.12
		c0.56-0.29,1.17-0.44,1.8-0.44c1.4,0,2.79,0.52,4.12,0.99c-0.36,0.39-0.67,0.82-0.95,1.19c-1.73,2.34-2.89,5.18-2.88,8.11
		c0,0.22,0.51-0.47,0.53-0.5c0.19-0.3,0.51-0.75,0.51-1.12c-0.01-2.05,0.5-4.19,1.84-5.79c0.74-0.88,1.63-1.72,2.86-1.57
		c1.3,0.16,2.63,0.6,3.88,0.99c0.35,0.11,1.11-1.7,1-1.73c-0.82-0.25-1.64-0.48-2.47-0.69c-0.69-0.17-1.44-0.41-2.16-0.29
		c-0.18,0.03-0.46-0.08-0.48-0.09c-1.7-0.56-5.33-2.02-5.33-2.14c0.02-0.91,0.15-1.94,0.58-2.76c0.43-0.8,1.31-1.42,2.13-1.76
		c1.79-0.77,4.03-0.48,5.41,0.94c1.13,1.35,2.88,2.01,4.36,2.94c1.73,1.08,3.32,2.39,4.72,3.87c1.48,1.57,2.53,3.42,3.92,5.06
		c1.41,1.67,3.18,2.35,5.32,2.57c2.35,0.24,4.71,0.28,7.07,0.45c2.04,0.15,4.18,0.42,5.88,1.65c2.29,1.66,3.07,4.47,3,7.22
		C71.78,104.77,71.26,106.04,70.76,107.31z"/>
	<path class="st3" d="M152.17,70.34c0.03-0.08,0.06-0.17,0.07-0.25c0.06-1.3-0.35-2.72-0.52-4.01c-0.02-0.17-0.21-0.39-0.45-0.62
		c0.23-0.92,0.32-1.81,0.09-2.55c-2.61-8.1-6.64-18.56-16.62-21.75c-2.33-0.75-4.77-1.2-7.11-1.94c-2.72-0.87-5.09-2.36-7.78-3.25
		c-2.11-0.7-4.53-1.02-6.96-1.02c-0.02-0.13-0.03-0.26-0.07-0.38c-0.72-2.17-6.18-1.08-8.13-1.03c-2.87,0.07-6.34,0.63-8.99-0.56
		c0.1-0.7,0.06-1.2-0.23-1.21c-0.84-0.03-1.62,0.08-2.36,0.28c0.03-0.43,0.03-0.7-0.03-0.7c-0.57,0-1.1,0.52-1.57,1.3
		c-0.99,0.47-1.93,1.09-2.87,1.72c-0.07-0.07-0.17-0.09-0.31-0.01c-3.03,1.71-6.72,1.87-10.21,2.34c-2.58,0.35-5.15,0.7-7.73,1.05
		c-2.19-0.29-4.38-0.5-6.54-0.16c-9.1,1.43-16.18,7.87-22.21,13.44c-0.64,0.59-1.14,1.32-1.56,2.11c-1.55,1.45-2.24,4.15-2.8,5.93
		c-0.05,0.16-0.18,0.76-0.29,1.45c-0.21,0.39-0.41,0.78-0.6,1.17c-0.61,0.31-1.89,1.73-3.17,3.45c-1.28,1.09-3.08,4.07-3.33,4.48
		c-0.75,1.26-1.49,2.55-1.99,3.91c-0.14,0.38-0.73,1.6-0.22,1.9c0.34,0.2,0.67,0.4,1.01,0.59c-0.39,1.03-0.52,1.86-0.21,2.21
		c3.24,3.73,7.11,6.55,11.74,8.59c2.48,2.32,4.9,4.73,7.55,7.01c3.1,2.66,6.14,3.71,10.37,4.62c2.9,0.62,6.47,0.67,9.33,1.68
		c0.39,0.69,1.02,1.32,1.49,1.91c0.74,0.95,1.37,1.91,1.76,3.01c0.04,0.12,0.11,0.17,0.18,0.19c-0.03,0.42-0.03,0.7,0.03,0.7
		c1.1,0,2.02-1.83,2.7-3.95c0.61-0.78,1.08-1.9,1.42-2.71c0.3-0.71,0.65-1.48,0.95-2.29c0.09-0.08,0.17-0.17,0.25-0.25
		c0.72-0.74,1.41-1.47,1.97-2.31c0.49-0.73,0.91-1.5,1.3-2.29c0.55-0.54,1.05-1.13,1.53-1.74c0.05,0,0.11-0.01,0.18-0.05
		c2.76-1.6,6.39-1.62,9.84-1.48c-0.05,0.66,0.01,1.09,0.25,1.14c4.74,0.95,9.7,2.39,14.58,2.53c0.08,0,0.16-0.01,0.24-0.03
		c0.27,0.15,0.51,0.27,0.69,0.37c0.05,0.03,0.17,0.09,0.36,0.18c0.01,0.05,0.02,0.08,0.04,0.08c0.02,0,0.04-0.01,0.06-0.01
		c0.18,0.18,0.36,0.36,0.54,0.55c0.06,0.06,0.17-0.01,0.31-0.18c0.03,0.01,0.05,0.02,0.08,0.04c0.01,0.03,0.02,0.05,0.03,0.05
		c0.02,0,0.04-0.01,0.05-0.01c1.73,0.79,4.36,1.9,4.39,1.51c0.09-1.53-0.57-2.89-0.82-4.38c-0.28-1.66-0.05-3.29,0.46-4.88
		c0.06-0.09,0.12-0.17,0.17-0.26c0.93-1.38,1.84-2.75,2.62-4.2c0.04-0.07,0.07-0.13,0.1-0.2c0.1-0.09,0.2-0.19,0.28-0.29
		c1.1-0.79,2.18-1.41,3.29-1.89c3.18-0.04,6.36,0.02,9.54,0.22c0.26,0.02,0.52-0.13,0.77-0.37c1.58,0.37,3.1,0.69,4.61,0.78
		c0.03,0.17,0.1,0.28,0.23,0.28c2.46,0,4.91-0.07,7.2-0.93c2.18-0.81,3.08-2.35,4.73-3.68c0.58-0.47,1.05-1.1,1.44-1.8
		c0.53-0.01,1.02-0.45,1.46-1.13c0.25,0.03,0.48,0.02,0.66-0.09c0.42-0.25,1.09-0.54,1.67-0.89c0.63,0.22,1.25,0.35,1.84,0.35
		C153.63,71.73,153.01,71.06,152.17,70.34z"/>
	<g>
		<path class="st4" d="M130.77,62.65C130.77,62.65,130.77,62.65,130.77,62.65C130.8,62.62,130.77,62.64,130.77,62.65z"/>
		<path class="st4" d="M142.92,68.15c-1.91-1.24-1.96-3.84-2.18-5.84c-0.28-2.48-0.46-4.99-1.14-7.41
			c-0.64-2.29-1.79-4.37-3.04-6.39c-1.15-1.86-2.38-3.7-3.92-5.28c-0.36-0.37-0.73-0.7-1.11-1.02c-0.38-0.36-0.76-0.71-1.11-1.07
			c-0.01-0.01-0.08,0.04-0.16,0.12c-1.07-0.71-2.22-1.29-3.49-1.72c-2.31-0.78-4.69-1.26-6.92-2.26c-2.22-0.99-4.35-2.22-6.75-2.76
			c-1.02-0.23-2.08-0.32-3.08-0.62c-1.25-0.38-1.86-1.25-2.92-1.86c-1.02-0.59-2.21-0.43-3.33-0.25c-1.43,0.23-2.83,0.42-4.29,0.36
			c-2.61-0.1-5.12-0.78-7.43-1.95c0.01-0.04,0.03-0.07,0.03-0.11c0.02-0.25,0.08-0.49-0.22-0.12c-0.03,0.03-0.05,0.06-0.08,0.09
			c-0.09-0.05-0.17-0.09-0.26-0.13c-0.18-0.1-0.84,0.94-1.02,1.46c-0.01,0.02-0.02,0.04-0.04,0.05c-7.03,6.41-18.71,3.67-27.42,4.41
			c-0.56,0.05-0.92,1.75-1.05,1.76c0.12-0.01,0.25-0.02,0.37-0.03c-4.13,2.29-7.9,5.19-11.12,8.61c-2.94,3.11-6.68,7.39-6.74,11.91
			c0,0.03-0.01,0.05-0.03,0.08c-0.22,0.27-0.44,0.55-0.67,0.83c-2.41,1.9-4.36,4.26-6.11,6.75c-1.02,1.45-1.98,2.94-2.91,4.45
			c-0.28,0.46-0.6,0.95-0.61,1.47c-0.03,0.05-0.07,0.1-0.09,0.16c-0.06,0.14-0.16,0.3-0.16,0.45c0.01,1.24,0.4,2.47,1.08,3.51
			c1.17,2.76,4.17,5.09,6.69,6.88c1.31,0.93,2.66,1.77,4.05,2.59c1.28,0.75,2.23,1.7,3.28,2.72c2.24,2.17,4.78,4.01,7.54,5.51
			c0.03,0.02,0.08,0,0.14-0.05c0.38,0.16,0.77,0.3,1.18,0.41c2.17,0.59,4.46,0.6,6.7,0.61c2.25,0.01,4.37,0.02,5.68,2.08
			c1.12,1.76,1.75,3.88,2.13,5.94c-0.03,0.25-0.06,0.48-0.08,0.73c-0.44,1.02-0.31,0.87,0,0.67c0.11-0.07,0.21-0.21,0.31-0.36
			c0.14-0.03,0.48-0.51,0.5-0.55c0.09-0.13,0.23-0.35,0.35-0.56c0.02-0.03,0.05-0.07,0.07-0.1c0.23-0.34,0.5-0.73,0.56-1.14
			c0.07-0.52,0.16-1.05,0.26-1.57c0.21-0.66,0.41-1.32,0.62-1.99c0.24-0.52,0.49-1.03,0.73-1.54c0.39-0.81,0.75-1.63,1.05-2.48
			c0.04-0.1,0.07-0.2,0.1-0.31c0.27-0.52,0.54-1.04,0.84-1.54c0.23-0.39,0.47-0.78,0.72-1.16c1.23-1.14,2.77-1.93,4.32-2.58
			c1.42-0.59,2.69-1.18,3.7-2.28c0.26,0.01,0.53,0.02,0.79,0.06c1.88,0.24,3.75,0.71,5.6,1.09c2.07,0.42,4.18,0.78,6.21,1.35
			c3.79,1.07,6.75,3.46,9.67,5.94c0.15,0.13,1.17-1.47,1.05-1.76c-1.44-3.44-2.53-7.27-1.56-10.97c0.29-1.1,0.86-2.06,1.6-2.84
			c0.02-0.02,0.04-0.03,0.06-0.04c2.43-0.87,5-0.37,7.54-0.43c1.25-0.03,2.48-0.35,3.73-0.38c1.3-0.03,2.56,0.31,3.83,0.56
			c2.24,0.44,4.15,0.3,6.02-1.07c0.47-0.34,0.93-0.72,1.36-1.12c0.11-0.08,0.23-0.15,0.34-0.23c1.45-1.14,2.11-2.77,3.29-4.12
			c1.45-1.67,3.76-2.26,5.91-1.85C142.18,69.98,143.13,68.29,142.92,68.15z M75.82,89.41c-0.43,0.47-0.81,1.05-1.03,1.64
			c-0.24,0.63,0.05,1.14,0.13,1.68c-0.22,0.19-0.43,0.39-0.59,0.64c-0.31,0.47-0.6,1.01-0.76,1.56c-0.18,0.65-0.16,1.31-0.13,1.97
			c0.01,0.33,0.04,0.66,0.04,1c0,0.24-0.29,1.47,0.03,0.96c-0.13,0.21-0.26,0.5-0.34,0.74c-0.24-0.94-0.52-1.87-0.89-2.78
			c-0.5-1.21-1.09-2.5-2.17-3.28c0.05-0.12,0.08-0.23,0.1-0.34c0.08-0.54,1.25-0.6,1.61-0.59c0.43,0.01,1.05-1.37,1.07-1.71
			c0.04-1.01-2.01-1.64-1.82-2.37c0.1-0.38,1.73-0.6,2.06-0.69c0.64-0.18,1.14-0.42,1.65-0.84c0.15-0.12,1.13-1.61,0.9-1.69
			c-2.29-0.73-4.59-1.41-6.9-2.05c-0.1-0.03-0.14-0.16-0.06-0.23c2.6-2.37,5.21-4.73,7.91-6.99c-0.29,0.32-0.56,0.66-0.8,1.01
			c-1.19,1.76-2.34,4.63-0.51,6.4c1.34,1.3,2.95,0.93,4.09-0.09c0.08-0.08,0.23-0.03,0.24,0.08c0.2,1.48-0.31,2.74-1.43,3.86
			C77.45,88.03,76.53,88.63,75.82,89.41z M140.27,68.15c-0.8,0.15-1.58,0.45-2.28,0.9c-0.81,0.52-3.57,2.96-4.99,4.41
			c-0.64,0.65-1.43,1.14-2.31,1.41c-0.92,0.28-1.9,0.57-1.92,0.56c-1.35-0.22-4.88-1.05-5.3-1.25c-0.68-0.33-1.37-0.66-2.05-0.99
			c-0.52-0.25-1.31-0.17-1.78,0.16c-0.63,0.45-1.22,0.95-1.77,1.49c-0.03,0.03-0.08,0.04-0.12,0.03c-2.75-0.72-6.99-0.94-9.9,3.42
			c-1.93,2.9-2.3,7.7-0.79,11.35c-0.64-0.51-1.53-0.88-2.13-1.22c-1.18-0.68-2.39-1.33-3.65-1.88c-2.77-1.2-5.66-1.6-8.64-1.91
			c-1.41-0.15-2.83-0.3-4.22-0.59c-1.31-0.27-2.78-1.09-4.12-1.01c-1,0.05-1.7,0.71-2.32,1.4c-0.65,0.72-1.28,1.46-1.9,2.2l-1,0.77
			c-0.23,0.18-0.47,0.37-0.72,0.52c0.26-0.3,0.51-0.61,0.74-0.94c1.15-1.65,2.03-3.61,1.58-5.63c-0.05-0.21-0.67,0.7-0.7,0.74
			c-0.31,0.52-1.84,0.41-2.33,0.28c-1.05-0.28-1.85-1.06-2.09-2.23c-0.28-1.37,0.38-2.76,1.5-3.65c0.61-0.49,1.28-0.91,1.94-1.32
			c1.9-1.16,3.9-2.31,6.14-2.68c2.31-0.39,4.67-0.1,6.96-0.65c0.33-0.08,1.15-1.44,0.99-1.76c-0.99-1.93-3.28-2.66-5.39-2.32
			c-2.47,0.4-4.52,2.04-6.43,3.51c-4.76,3.66-9.19,7.72-13.6,11.77c-0.14,0.13-1.13,1.62-0.9,1.69c1.97,0.53,3.93,1.11,5.88,1.71
			c-0.11,0.04-0.22,0.08-0.33,0.14c-0.8,0.39-1.36,1.11-1.78,1.85c-0.35,0.61-0.75,1.36-0.42,2.06c0.19,0.39,0.6,0.65,0.96,0.93
			c-0.63,0.44-1.15,1.09-1.49,1.8c-0.15-0.07-0.3-0.15-0.47-0.2c-0.49-0.16-1.01-0.24-1.53-0.29c0.03-0.1,0.05-0.2,0.05-0.3
			c-0.13-1.53-0.95-2.89-2.04-3.98c-0.6-0.6-1.27-1.13-1.95-1.63c-0.62-0.46-1.26-0.99-2-1.27c-0.76-0.29-1.4-0.13-2.05,0.31
			c-0.66,0.45-1.36,0.9-1.99,1.39c-0.35,0.28-0.79,0.83-1.01,1.21c-0.18,0.31-0.46,0.75-0.43,1.13c0.04,0.58,0.76,0.85,1.24,0.97
			c0.4,0.1,1.13-1.74,1.05-1.76c-0.24-0.06-0.65-0.19-0.92-0.4c0.22-0.15,0.44-0.31,0.65-0.46c0.48-0.34,0.98-0.77,1.6-0.78
			c1.11-0.03,2.13,0.93,2.95,1.54c1.37,1.02,2.72,2.24,3.38,3.79c0.04,0.09-0.03,0.19-0.13,0.19c-0.71,0.01-1.41,0.04-2.08,0.02
			c-1.75-0.04-3.51-0.17-5.19-0.65c-3.64-1.05-5.41-3.92-7.7-6.6c-2-2.34-4.6-4.02-7.15-5.74c-2.1-1.42-5.78-5.79-5.91-6.14
			c0-0.01-0.01-0.02-0.01-0.03c-0.28-2.44,0.22-4.92,1.27-7.17c0.9-1.94,2.18-3.68,3.52-5.37c0.01-0.01,0.01-0.01,0.02-0.02
			c0.33-0.32,0.69-0.62,1.07-0.89c1.53-1.08,3.37-1.61,5.19-2.01c2.07-0.46,4.16-0.87,6.25-1.3c0.31-0.06,0.62-0.78,0.75-1.02
			c0.05-0.09,0.39-0.77,0.18-0.72c-3.53,0.73-7.43,1.14-10.58,2.87c0.01-0.06,0.03-0.12,0.02-0.18c-0.38-2.56,0.67-4.8,2.2-6.83
			c1.39-1.83,2.97-3.53,4.65-5.11c2.86-2.67,6.09-4.93,9.57-6.78c-0.21,0.27-0.4,0.54-0.57,0.81c-0.71,1.16-1.17,2.43-1.27,3.79
			c-0.1,1.34,0.13,2.68,0.47,3.97c0.06,0.23,1.13-1.53,1.09-1.65c-0.27-1.01-0.47-2.04-0.49-3.09c-0.01-0.52,0.01-1.04,0.11-1.55
			c0.07-0.37,0.15-0.88,0.34-1.17c0.35-0.56,1.11-1.04,1.73-1.31c0.83-0.37,5.64-0.14,5.26,0.51c-0.34,0.58-0.61,1.19-0.77,1.84
			c-0.07,0.12-0.14,0.23-0.2,0.35c-1.42,2.58-2.27,5.4-2.43,8.32c0,0.03-0.02,0.07-0.04,0.09c-0.55,0.53-1.14,1.03-1.8,1.45
			c-0.34,0.22-0.57,0.68-0.75,1.02c-0.04,0.08-0.32,0.82-0.18,0.72c2.98-1.89,4.57-5.26,7.59-7.08c3.89-2.34,8.65-1.19,12.64,0.25
			c0.34,0.12,1.2-1.71,1.05-1.76c-1.43-0.52-2.95-0.99-4.5-1.29c0-0.08,0.03-0.21,0.05-0.32c0.24-0.2,0.52-0.37,0.81-0.49
			c0.78-0.33,1.65-0.38,2.49-0.34c1.69,0.09,3.35,0.56,5.04,0.24c0.1-0.02,0.29-0.3,0.33-0.35c0.16-0.21,0.3-0.44,0.42-0.67
			c0.05-0.09,0.39-0.76,0.18-0.72c-2.44,0.45-4.87-0.8-7.31,0c-0.68,0.22-1.25,0.67-1.7,1.2c-0.31,0.37-0.62,0.8-0.87,1.26
			c-0.03,0.05-0.08,0.08-0.14,0.07c-2.49-0.38-5.02-0.24-7.29,1.01c-2.06,1.14-3.46,3-5.01,4.7c0.05-0.12,0.08-0.24,0.09-0.35
			c0.09-2.34,0.61-4.68,1.66-6.79c0.48-0.98,1.31-1.75,2.31-2.25c0.98-0.49,1.98-0.94,2.98-1.41c0.01-0.01,0.02-0.01,0.03-0.01
			c5.03-0.87,14.14-2.58,17.4-6.07c0.04-0.04,0.1-0.05,0.16-0.03c1.99,1.02,4.13,1.69,6.38,1.91c1.09,0.11,2.2,0.12,3.29,0.02
			c1.22-0.11,2.42-0.47,3.65-0.47c1.3,0,1.96,0.58,2.9,1.35c0.93,0.76,2.05,1.03,3.22,1.25c2.28,0.42,4.27,1.12,6.34,2.09
			c2.31,1.08,4.7,1.98,7.16,2.67c2.23,0.63,4.33,1.41,6.15,2.83c0.01,0,0.01,0.01,0.02,0.01c0.64,0.63,1.28,1.26,1.9,1.9
			c0.8,0.82,1.35,1.66,1.46,2.81c0.11,1.1,0.19,2.23,0.26,3.34c0.04,0.58-0.3,1.86-0.41,1.92c-0.15,0.08-0.56,0.08-0.61,0.13
			c-3.09-1.12-4.94-3.89-7.41-5.86c-1.83-1.46-4.04-2.16-6.22-1.95c0.05-0.16,0.07-0.3,0.03-0.37c-1-1.6-2.87-2.12-4.62-2.59
			c-2.16-0.57-4.36-0.95-6.59-1.13c-2.01-0.16-4.16-0.01-6.05-0.8c-1.63-0.67-3.3-2.49-2.59-4.33c0.16-0.41,0.01-0.27-0.22-0.12
			c-0.33,0.22-0.6,0.89-0.74,1.25c-0.6,1.57-0.09,3.13,1.22,4.22c1.62,1.34,3.93,1.35,5.94,1.46c2.38,0.13,4.73,0.44,7.05,0.98
			c1.52,0.36,3.27,0.74,4.52,1.7c-2.01,0.73-2.24,1.81-2.4,2.16c-0.03,0.06-0.27,0.71-0.12,0.61c3.27-2.17,7.12-1.55,10.01,0.87
			c2.32,1.95,4.15,4.55,7.11,5.63c0,0.06,0.15,0.06,0.16,0.07c0.27,0.57,0.25,1.21,0.19,1.83c-0.07,0.66-0.15,1.31-0.08,1.97
			c0.04,0.36,0.12,0.72,0.22,1.07c-0.35,0.31-0.66,0.65-0.94,1.02c-0.64,0.86-1.2,1.82-1.49,2.85c-0.02,0.07,2.21-2.7,2.33-2.78
			c0.13-0.08,0.25-0.23,0.34-0.35c0-0.01,0.01-0.01,0.01-0.02c0.26,0.61,0.61,1.18,1.04,1.69c0.1,0.11,1.24-1.56,1.08-1.75
			c-0.88-1.03-1.41-2.29-1.49-3.62c-0.05-0.88,0.19-1.81,0.13-2.7c0-0.03,0.01-0.06,0.03-0.09c0.49-0.51,0.86-1.16,1.15-1.74
			c0.55-1.11,0.58-2.21,0.49-3.37c-0.01-0.14,0.18-0.2,0.26-0.08c1.23,1.89,2.4,3.87,3.15,5.98c0.95,2.67,1.16,5.51,1.47,8.29
			c0.14,1.32,0.22,2.92,0.75,4.25C140.4,68.05,140.35,68.13,140.27,68.15z M79.81,73.45c1.94-1.52,4.03-3.27,6.52-3.84
			c1.53-0.35,3.21-0.08,4.44,0.81c-1.14,0.08-2.28,0.09-3.43,0.19c-1.64,0.13-3.24,0.6-4.72,1.32
			C81.69,72.38,80.73,72.88,79.81,73.45z"/>
	</g>
	<path class="st3" d="M71.49,102.83c-0.23-0.45-0.87-2.03-1.51-2.03c-0.05,0-0.06,0.07-0.05,0.17c-0.14-0.18-0.34-0.39-0.45-0.31
		c-0.17,0.12-0.33,0.25-0.5,0.37c-0.08-0.1-0.16-0.19-0.24-0.29c-0.08-0.13-0.2-0.2-0.35-0.21c-0.28,0.04-0.55,0.13-0.8,0.25
		c-0.1-0.27-0.18-0.46-0.19-0.5c-0.66-1.5-1.75-4.36-3.32-5.21c-0.71-0.38-1.36-0.49-1.96-0.4c-0.24-0.2-0.5-0.33-0.76-0.36
		c-1.08-0.13-2.12,0.07-3.13,0.51c-0.6-0.84-1.14-1.36-1.44-1.2c-0.48,0.24-0.95,0.43-1.43,0.6c-0.21-0.23-0.44-0.42-0.74-0.46
		c-1.41-0.2-2.79-0.11-4.16,0.23c-0.07-0.02-0.14-0.03-0.2,0c-0.07,0.03-0.13,0.07-0.2,0.1c-0.06,0.02-0.13,0.03-0.19,0.05
		c-0.06,0.02-0.09,0.06-0.12,0.11c-0.46,0.23-0.9,0.49-1.32,0.79c-0.04,0.03-0.06,0.08-0.08,0.13c-0.01,0-0.03-0.01-0.04-0.01
		c0.01,0,0.02,0.03,0.02,0.04c-0.03,0.11-0.04,0.25-0.02,0.41c-0.56,0.3-1.08,0.66-1.57,1.07c-0.15-0.15-0.3-0.28-0.46-0.34
		c-0.81-0.31-1.52-0.24-2.18,0.05c-0.15-0.14-0.31-0.24-0.53-0.25c-0.41,0.32-0.81,0.65-1.22,0.97c-0.11,0.14-0.14,0.3-0.1,0.48
		c-0.67,0.68-1.31,1.4-1.87,2.18c-0.05,0.07-0.07,0.17-0.09,0.26c-0.2,0.24-0.42,0.48-0.61,0.73c-0.16,0.21-0.14,0.56-0.07,0.89
		c-3.07,1.63-6.55,3.34-6.98,6.46c-0.09-0.02-0.18-0.06-0.26-0.06c0.03,0,0.11,0.22,0.22,0.58c-0.06,0.04-0.12,0.07-0.17,0.11
		c-0.54,0.36,0,1.99,0.86,3.75c-0.1-0.02-0.2-0.02-0.3,0.02c-1.02,0.43-1.3,1.61-1.32,2.86c-0.04-0.01-0.09-0.03-0.13-0.03
		c0.02,0,0.07,0.12,0.13,0.3c0,0.04,0.01,0.08,0.01,0.13c-0.11-0.08-0.23-0.15-0.34-0.15c-0.15,0,0,0.53,0.21,1.1
		c-0.18-0.22-0.38-0.37-0.57-0.37c-0.32,0,0.68,2.26,0.76,2.42c0.06,0.11,0.14,0.3,0.24,0.51c-0.04,0.01-0.08,0.03-0.12,0.04
		c-0.81,0.29,3.01,9.46,4.54,8.91c0.14-0.05,0.29-0.11,0.44-0.16c0.02,1.94,3.68,8.95,4.7,8.43c1.16-0.59,3.03-1.89,4.87-2.7
		c1.15,2.27,2.65,4.46,3.26,4.22c2.86-1.1,5.72-0.32,8.59-1.11c2.86-0.78,4.4-3.63,5.83-6.04c1.24-2.08,1.59-4.77,2.67-7.16
		c0.97-2.13,1.53-3.66,1-6.06c-0.36-1.66-1.1-3.34-1.98-4.86c2.16-1.87,4.05-4.04,5.56-6.47c0.14-0.22,0-0.58-0.06-0.79
		c-0.01-0.02-0.02-0.04-0.02-0.06c0.18-0.13,0.35-0.27,0.54-0.4c0.03-0.02,0.03-0.06,0.04-0.1c0.15,0.15,0.3,0.24,0.46,0.24
		C72.56,105.25,71.57,102.99,71.49,102.83z"/>
	<g>
		<path class="st4" d="M69.26,100.7c-0.78-1.09-2.24-1.93-3.51-1.14c-0.32-1.28-0.82-2.54-1.55-3.63c-0.39-0.59-0.9-1.11-1.52-1.46
			c-0.77-0.43-1.63-0.72-2.45-1.06c-0.82-0.34-1.45-0.64-2.27-0.14c-0.45,0.27-0.87,0.6-1.27,0.94c-0.18-0.58-0.47-1.14-0.88-1.49
			c-0.25-0.21-1.9-0.27-2.42-0.27c-1.56-0.02-6.69,1.09-7.19,2.08c-0.15,0.3-0.25,0.6-0.33,0.91c-0.7-0.06-1.39-0.12-2.09-0.18
			c-0.85-0.07-1.62-0.26-2.24,0.45c-0.63,0.72-1.15,1.57-1.73,2.33c-0.46,0.63-0.92,1.27-1.39,1.9c-0.26,0.36-0.53,0.72-0.79,1.09
			c-1.59-0.24-2.92,1.33-3.89,2.43c-1.31,1.47-2.6,3.04-3.31,4.9c-0.53,1.39-0.55,3.14,0.62,4.18c-0.2,0.27-0.39,0.55-0.56,0.83
			c-1.29,2.13-1.68,4.23-1.09,6.66c0.3,1.22,0.17,5.62,0.13,6.64c-0.09,0.5-0.03,1.05,0.16,1.55c0.22,0.58,0.51,1.15,0.9,1.63
			c0.32,0.53,0.71,1.03,1.12,1.43c1.31,1.28,2.89,2.26,4.22,3.55c1.26,1.22,2.46,2.52,3.88,3.57c1.45,1.08,3.07,1.76,4.89,1.85
			c1.16,0.06,2.31-0.08,3.47-0.03c1.26,0.05,2.39,0.41,3.53,0.91c1.71,0.75,3.45,1.73,5.39,1.42c2.03-0.33,3.7-1.83,5.12-3.21
			c3.26-3.17,5.38-7.5,3.57-11.98c0.27-0.94,0.3-1.92,0.14-2.88c1.04-1.56,1.48-3.44,1.29-5.31c-0.11-1.09-0.46-2.15-0.92-3.14
			c-0.4-0.84-1-2.26-2.07-2.35c-0.11-0.01,1.71,2.32,1.86,2.92c0.19,0.74,0.25,1.51,0.21,2.28c-0.07,1.23-0.44,2.41-1.06,3.46
			c-0.38-0.82-2.78-1.27-2.81-1.22c-0.16,0.25-0.57,0.8-0.51,1.12c0.39,2.06,2.15,3.72,1.75,5.94c-0.17,0.93-0.68,1.67-1.41,2.26
			c-1.02,0.83-2.79-1.43-3.23-2.1c-0.59-0.92-2.73,0.81-2.61,0.82c0.95,0.09,2.89,0.6,4.28,2.32c1.1,1.37,1.55,5.04,0.26,6.23
			c-1.29,1.19-2.25,2.2-2.39,2.28c-1.8,1.07-7.15-0.7-9.36-1.03c-0.85-0.13,0.61-6.09,0.45-7.04c-0.17-1.03-0.24-2.25,0.07-3.23
			c2.55-8.15,4.36-7.79,4.45-8.01c0.12-0.27,0.27-0.63,0.39-0.92c0.11-0.27,0.12-0.57,0.03-0.85c-0.11-0.35-0.22-0.83-0.13-0.95
			c0.43-0.53,1.07-0.83,1.73-0.94c1.41-0.22,4.19,1.57,4.36,1.68c0.29,0.19-1.68-4.6-2.29-5.57c-0.03-0.09-0.09-0.34-0.08-0.36
			c0.2-1.08,0.71-2.17,1.07-3.21c0.39-1.12,0.28-5.23,0.21-5.04c-0.01,0.03-0.02,0.06-0.03,0.09c-0.1-0.07-0.51,0.45-0.54,0.5
			c-0.15,0.21-0.3,0.42-0.42,0.65c-0.06,0.11-0.2,0.31-0.17,0.44c0.01,0.07,0,0.15,0,0.23c-0.05,0.04-0.11,0.08-0.16,0.12
			c-0.97,0.28-2.89-0.03-3.02-0.09c-0.04-0.05-0.09-0.08-0.14-0.07c-0.01,0-0.49-0.24-0.7-0.4c-0.17-0.13-0.58-0.54-0.63-0.61
			c-0.1-0.21-0.4-0.81-0.58-0.76c-0.16,0.05,0.29,0.93,0.3,0.97c0.21,0.42,0.47,0.8,0.75,1.15c-0.41,0.26-0.73,0.62-0.96,1.05
			c-0.01-0.03-0.02-0.06-0.03-0.09c-0.42-1.14-1.07-2.26-2-3.05c-0.1-0.09-0.07,0.15-0.07,0.15c0.03,0.19,0.12,0.4,0.2,0.57
			c0.17,0.36,0.36,0.78,0.66,1.04c0.12,0.1-0.65,4.71-2.11,6.07c-1.06,0.99-2.79,1.67-3.27,3.13c-0.16-0.64-0.36-1.27-0.64-1.87
			c-0.34-0.71-0.77-1.44-1.41-1.92c0.13-1.15-0.04-2.37-0.21-3.46c-0.07-0.44-0.33-0.88-0.57-1.25c-0.06-0.1-0.43-0.61-0.37-0.21
			c0.32,2.03,0.61,4.54-1.2,6c-0.17,0.13,0.23,0.84,0.3,0.97c0.04,0.07,0.48,0.91,0.61,0.81c0.8-0.65,1.42-2.27,1.43-2.26
			c0.15,0.33,1.38,2.78,1.49,3.39c0.26,1.36,0.44,2.74,0.56,4.12c0.03,0.4,0.97,1.81,0.96,1.68c-0.06-0.75,0.85-3.22,1.42-3.69
			c0.28-0.23,1.6-1.11,1.97-1.11c0.36,0,0.6,0.35,0.83,0.59c0.14,0.14,0.66,0.97,1.15,1.76c-0.48,0.55-0.95,1.1-1.37,1.7
			c-0.36,0.51-0.67,1.04-0.89,1.63c-0.17,0.47-1.08,3.3-1.28,4.24c-0.2,0.74-0.38,1.49-0.5,2.25c-0.16,0.97-0.25,1.96-0.28,2.94
			c-0.01,0.5-3.73,6.82-3.88,7.02c-3.25-0.22-5.62-2.26-7.52-4.85c-1.14-1.55-1.21-3.63-0.21-5.27c0.55-0.89,1.05-1.71,1.15-1.8
			c2.33-2,6.7-7.44,6.86-7.76c0.04-0.08-3.49,3.27-5.3,5.33c-1.84,2.1-6.79,5.6-8.62,2.86c-0.16-0.24,1.03-4.54,0.79-5.15
			c-0.3-0.78-1.68-4.68-1.73-5.89c-0.06-1.35,0.29-2.65,1.32-3.6c0.01,0,0.01,0,0.02,0c0.66,0.41,1.44,0.6,2.19,0.8
			c0.94,0.25,1.87,0.67,2.84,0.73c0.17,0.01,2.55-0.63,2.62-0.56c0.44,0.44,0.78,0.96,1.01,1.54c0.19,0.5,0.3,1.02,0.32,1.56
			c0,0.12,1.04-1.77,1.02-1.99c-0.1-0.92-0.49-1.8-1.08-2.51c0.28-0.29,0.55-0.58,0.81-0.86c0.3-0.33,0.57-0.8,0.71-1.22
			c0.1-0.31,0.04-0.4-0.21-0.12c-1.24,1.37-2.71,2.75-4.71,2.38c-0.96-0.18-5.13-1.41-5.67-2.12c-1.08-1.42,0.43-3.91,1.02-4.57
			c4.55-5.13,6.56-2.3,6.91-1.99c0.7,0.62,0.98,1.56,0.82,2.47c-0.17,1.01-0.19,2.04-0.01,3.07c0.04,0.22,1.51-6.08,0.45-7.02
			c-0.44-0.39-0.94-1.02-1.55-1.12c-0.18-0.03-0.79-0.1-0.83-0.12c-0.02-0.01,0.58-0.92,0.86-1.3c0.54-0.74,1.09-1.49,1.63-2.23
			c0.31-0.42,0.48-0.72,1.06-0.73c0.43,0,0.87,0.07,1.3,0.11c0.9,0.08,1.79,0.16,2.69,0.24c-0.01,0.5,0.01,1,0.02,1.51
			c0.01,0.62-0.06,1.33,0.23,1.89c0.27,0.52,0.82,0.79,1.32,1.05c0.31,0.16,1.1,0.84,1.1,0.83c0.01-0.01,1.09,1.11,1.39,1.88
			c0.08,0.21,0.21-3.24-0.51-3.82c-0.68-0.55-1.83-0.8-2.27-1.61c-0.27-0.49-0.12-2.8-0.13-3.34c-0.01-0.57,4.35-1.34,5.72-1.38
			c0.65-0.02,2.67,0,3.03,0.01c0.15,0.01,0.3,0.01,0.44,0.02c0,0.08-1.67,2.33-2.04,3.07c-0.25,0.5-0.24,1.18-0.16,1.82
			c-0.47,0.1-0.94,0.19-1.41,0.29c-0.07,0.02,2.23,3.06,2.54,3.77c0.07,0.17,0.44,1.06,0.66,1.04c0.22-0.01-0.55-3.72-0.54-3.71
			c-0.07-0.22-0.14-1.63,0.28-1.96c0.56-0.43,2.55-2.88,3.09-3.26c0.66-0.46,1.18-0.74,1.97-0.44c0.69,0.26,4.74,4.25,4.71,4.92
			c-0.05,1.21-0.95,2.19-0.91,3.42c0.01,0.4,0.96,1.84,0.96,1.68c-0.02-0.75,0.29-1.39,0.56-2.07c0.3-0.74,0.27-2.27,0.26-2.3
			c0.24,0.45,1.7,0.4,2.28,0.54c0.24,0.06,0.48,0.16,0.7,0.28c0.12,0.07,0.24,0.15,0.35,0.24c0.03,0.02,0.61,1.82,0.61,2.28
			c0.01,0.61-0.19,1.22-0.54,1.72c-1.18,1.71-5.38,5.42-6.12,5.8c-0.36,0.19,0.8,1.87,0.89,1.8c1.45-1.25,2.87-2.54,4.26-3.86
			c1.24-1.18,2.58-2.26,2.45-4.12C70.73,103.62,70.2,102.02,69.26,100.7z"/>
	</g>
	<path class="st3" d="M164.69,67.02c0.2-0.95,0.22-1.82,0.01-2.47c0.3-1.49,0.18-2.8-0.6-3.29c0.13-0.92,0.15-1.97-0.31-2.55
		c0.62-2.18,0.47-4.25-1.19-4.25c-0.82,0-1.65,0.67-2.36,1.64c-0.1,0.1-0.21,0.19-0.31,0.31c0.56-1.83,0.8-3.75,0.58-5.62
		c-0.01-0.13-0.04-0.24-0.06-0.35c0.23-0.85,0.4-1.71,0.5-2.56c0.25-0.82,0.49-1.63,0.71-2.45c0.31-1.11,0.78-3.51-0.45-4.17
		c0.01-0.22,0.01-0.43,0.02-0.65c0.03-0.62-0.12-1.08-0.37-1.41c0.03-1.08-0.2-2.26-1.24-2.72c-0.83-0.37-1.73-0.04-2.49,0.45
		c-0.01-0.01-0.03-0.02-0.04-0.02c-0.55-0.34-0.89-0.74-1.23-1.3c-0.79-1.29-1.5-2.37-3-2.52c-1.75-2.84-4.69-4.9-7.78-6.51
		c-0.56-0.29-1.18-0.15-1.8,0.28c0.11-0.49,0.17-0.99,0.14-1.49c-0.04-0.6-0.13-1.83-0.89-2c-0.22-0.05-0.44-0.11-0.67-0.17
		c-0.09-0.14-0.18-0.27-0.29-0.4c-1.09-1.34-2.69-1.55-4.26-1.97c-0.13-0.04-0.26-0.03-0.39-0.04c-0.17-0.3-0.41-0.51-0.74-0.62
		c-1.44-0.45-2.94-0.91-4.26-1.65c-0.2-0.51-0.42-1.01-0.73-1.47c-0.69-1.05-1.73-1.9-2.79-2.58c-0.45-0.75-0.97-1.43-1.8-1.85
		c-0.36-0.19-1.59-0.29-3.11-0.3c-1.27-0.29-2.55-0.32-3.71,0.11c-1.53,0.1-2.95,0.27-3.81,0.52c-1.6-3.96-7.37-3.21-11.73-2.71
		c-2.7-1.81-5.57-3.27-8.85-3.62c-3.92-0.43-6.1,1.08-7.89,3.42c-2.71,0.44-4.44-1.36-7.22-1.77c-1.9-0.28-3.61,0.39-5.29,1.19
		c-0.98,0.17-1.94,0.45-2.9,0.76c-0.03-0.01-0.06-0.02-0.09-0.02c-0.23-0.18-0.51-0.31-0.88-0.31c-0.22,0-0.45,0.06-0.67,0.15
		c-0.12,0.04-0.25,0.09-0.39,0.16c-2.2,1.1-4.04,0.93-6.4,1.27c-2.13,0.3-4.14,1.33-6.1,2.18c-0.21-0.14-0.47-0.23-0.79-0.23
		c-2.16,0-4.39,4.54-4.33,7.28c-0.24-0.36-0.61-0.59-1.14-0.59c-0.55,0-1.1,0.3-1.61,0.78c-0.19-0.11-0.42-0.17-0.7-0.17
		c-0.5,0-1,0.26-1.48,0.67c-0.2-0.11-0.42-0.19-0.71-0.19c-0.83,0-1.66,0.68-2.38,1.66c-0.88,0.43-1.73,1.49-2.38,2.75
		c-0.41,0.41-0.8,0.93-1.15,1.51c-0.61,0.37-1.19,1.03-1.69,1.83c-0.63,0.21-1.25,0.77-1.81,1.52c-0.45,0.08-0.9,0.35-1.33,0.75
		c-0.45,0.11-0.89,0.4-1.31,0.81c-0.29,0.11-0.57,0.29-0.85,0.53c-0.11-0.02-0.22-0.06-0.35-0.06c-0.58,0-1.17,0.33-1.71,0.87
		c-0.47,0.1-0.92,0.37-1.24,0.7c-0.05,0.05-0.1,0.1-0.15,0.16c-0.22,0.06-0.43,0.13-0.66,0.23c-1.01,0.46-1.87,1.3-2.56,2.14
		c-0.33,0.4-0.62,0.85-0.88,1.32c-2.07,2.79-3.25,5.77-3.59,8.82c-0.49-0.71,0.04-0.56-0.69-1.14c-1.18-0.95-4.21,1.02-4.63,1.64
		c-1.16,1.68-2.31,4.79-1.28,6.83c-0.35,1.68-0.54,3.36-0.66,5.07c-0.43-0.02-0.93,0.2-1.48,0.73c-0.11,0.1-0.21,0.21-0.32,0.31
		c-0.47,0.45-0.99,1.1-1.47,1.84c-1.28,1.77-2.34,3.7-2.75,5.87c-0.47,2.46,0.34,3.91,0.83,6.22c0.32,1.5,0.32,3.07,0.27,4.64
		C9,79.68,7.62,82.56,7.37,84.78c-0.4,0.93-0.77,1.87-1.09,2.83c-0.16,0.47-0.29,1.06-0.34,1.66c-1.17,1.83-1.92,4.42-1.56,5.94
		c-0.03,0.26-0.06,0.52-0.07,0.77c-0.18,3.91,1.46,7.46,1.82,11.31c0.27,2.92,0.24,7.12,3.67,7.61c1.93,0.28,3.77-2.41,4.59-4.94
		c0.78-1.39,1.18-3.07,1.27-4.52c0.07-1.16,0.18-2.31,0.31-3.46c0.95-0.88,1.66-2.02,2.13-3.24c0.28-0.28,0.56-0.56,0.84-0.85
		c0.8-0.81,1.6-1.62,2.41-2.44c0.21-0.21,0.41-0.43,0.6-0.66c1.67-1.04,3.14-4.23,3.28-6.51c0.6-0.59,1.15-1.41,1.61-2.32
		c1.87-1.06,3.52-4.87,3.37-7.19c0.01-0.05,0.01-0.11,0.02-0.16c0.84-0.52,1.62-1.59,2.22-2.81c0,0,0,0,0.01,0
		c0.38,0,0.77-0.14,1.14-0.4c1.81-0.2,3.62-3.45,4.06-6.06c0.01,0,0.02,0,0.03,0c0.62,0,1.25-0.39,1.83-1
		c0.3-0.03,0.61-0.13,0.91-0.32c0.16,0.06,0.34,0.09,0.55,0.09c1.6,0,3.23-2.5,3.95-4.9c0.19-0.25,0.38-0.51,0.55-0.79
		c0.86-0.62,1.66-1.79,2.24-3.1c0.73-1.11,1.31-2.52,1.57-3.81c0.47-1.16,0.78-2.39,0.76-3.38c0.01-0.02,0.02-0.04,0.02-0.06
		c0.6-0.59,1.16-1.42,1.61-2.34c0.63-0.58,1.21-1.42,1.68-2.38c0.9-0.45,1.77-1.57,2.41-2.88c0.38-0.21,0.75-0.52,1.1-0.93
		c1.33-0.08,2.68-1.84,3.49-3.82c0.84,0.19,1.95-0.82,2.86-2.26c1.04,1.85,2.71,1.61,4.34,0.91c0.2,0.11,0.44,0.15,0.74,0.1
		c1.31-0.21,2.45-0.79,3.57-1.44c3.93-1.26,8.13-1.82,12.16-2.6c0.39-0.08,0.77-0.28,1.14-0.59c0.15-0.03,0.3-0.07,0.46-0.14
		c0.09,0.94,1.98,0.71,2.96,0.48c1.84-0.43,2.15,0.11,3.99-0.32c0.5-0.12,0.95-0.36,1.36-0.68c0.16,0.06,0.34,0.09,0.55,0.08
		c0.25-0.01,0.5-0.02,0.74-0.02c0.1,0.02,0.21,0.03,0.34,0.02c0.25-0.01,0.5-0.03,0.76-0.05c3.18-0.08,6.34,0.03,9.36,1.22
		c2.84,1.13,5.3,2.78,8.36,3.33c0.05,0.01,0.11,0.01,0.16,0.02c0.03,0.57,0.03,1.46,0.49,1.41c5.38-0.66,7.04,2.53,10.06,2.43
		c0.06,0,0.13-0.03,0.19-0.04c1.32,0.6,2.59,0.93,3.92,0.55c0.21,1.21,0.63,2.38,1.33,3.48c0.25,0.4,0.66,0.51,1.07,0.47
		c0.33,0.26,0.8,0.29,1.42-0.13c0.25-0.17,0.49-0.35,0.73-0.52c-0.06,2.31-0.32,5.22,0.73,7.1c0.44,0.79,1.23,1.25,1.75,1.98
		c0.74,1.06,0.92,2.39,1.14,3.64c0.2,1.13,1.2,1.39,2.12,0.94c1.63-0.78,2.34-0.4,3.21,0.17c-2.81,0.05-6.18,7.98-3.43,9.27
		c0.15,0.07,0.29,0.13,0.44,0.2c-1.42,0.25-2.73,1.03-3.98,2.45c-3.08,3.48-5.8,6.81-10.78,7.46c-2.44,0.32-4.83-0.31-7.23-0.6
		c-2.09-0.25-4.28-0.02-6.1-1.16c-0.37-0.23-0.78-0.23-1.21-0.06c-0.01,0-0.02-0.01-0.04-0.01c-3.08,0-6.34,9.31-2.8,9.31
		c0.04,0,0.08-0.02,0.12-0.02c0.2,0.12,0.44,0.21,0.67,0.32c-0.05,0.7,0.04,1.32,0.33,1.79c3.89,6.33,10.6,9.09,17.67,10.3
		c1.2,0.21,2.48,0.46,3.8,0.71c0.04,0.06,0.09,0.11,0.14,0.17c-0.01,0-0.01-0.01-0.02-0.01c0.49,0.43,0.9,0.92,1.2,1.5
		c0.05,0.16,0.1,0.31,0.14,0.48c0.01,0.03,0.01,0.04,0.01,0.06c0,0.07,0.01,0.11,0.01,0.08c-0.05,0.72-0.06,1.56,0.37,2.12
		c0.31,0.4,0.75,0.52,1.2,0.46c0.74,0.35,1.63,0.15,2.39-0.26c2.01-1.07,3.89-2.63,5.78-3.91c0.34-0.23,0.65-0.5,0.94-0.78
		c0.74-0.31,1.45-0.72,2.11-1.22c0.6-0.05,1.21-0.45,1.76-1.05c1.63-1.44,2.95-4.75,2.78-6.82c0.29-0.26,0.57-0.55,0.84-0.91
		c1.82,0.44,4.08,0.95,5.84,0.09c2.05-1.01,2.51-3.59,3.94-5.14c0.73-0.79,1.67-2.48,2.05-4.12c2.15-1.05,4.08-5.89,3.36-8.05
		C165.46,69.91,165.65,67.76,164.69,67.02z"/>
	<path class="st4" d="M168.16,67.66c0.02-3.8,0.2-7.81-1.04-11.45c-0.32-0.95-1.15-3.69-2.39-3.36c-0.6,0.16-1.23,0.83-1.71,1.21
		c-0.2,0.16-0.39,0.31-0.59,0.47c0.24-0.32,0.47-0.66,0.66-1.01c0.72-1.37,0.86-2.98,1.06-4.5c0.23-1.8,0.43-3.6,0.58-5.41
		c0.22-2.66,0.78-6.13-0.92-8.44c-0.3-0.4-0.68-0.8-1.16-0.96c-0.29-0.1-0.49-0.07-0.78-0.04c-0.77,0.09-0.77,0.2-1.36-0.28
		c-1.42-1.15-2.67-2.67-3.97-3.96c-0.11-0.11-0.46,0.1-0.81,0.38c-0.04-0.25-0.11-0.49-0.23-0.69c-0.23-0.39-0.65-0.61-0.99-0.88
		c-0.4-0.33-0.75-0.72-1.08-1.13c-1.14-1.41-2.4-3.24-4.36-3.01c0,0,0,0,0-0.01c-0.08-0.17-0.5-0.5-0.53-0.51
		c-0.82-0.21-1.65-0.35-2.46-0.21c0.09-0.1,0.16-0.21,0.2-0.32c0.24-0.69,0.46-1.44,0.35-2.19c-0.13-0.88-0.82-1.28-1.5-1.7
		c-1.41-0.88-2.92-2.13-4.6-2.34c-0.68-0.08-1.29-0.43-1.3-0.44c-0.99-0.52-2.08-0.36-3.12-0.69c-0.96-0.3-1.58-1.06-2.08-1.93
		c-1-1.74-1.75-3.36-3.4-4.57c-1.5-1.09-3.33-1.72-5.16-1.74c-2.22-0.03-4.09,1.14-6.19,1.68c-0.02,0-0.03,0.01-0.05,0.02
		c-0.12-0.33-0.3-0.64-0.47-0.9c-1.12-1.68-3.12-2.32-5-2.46c-2.32-0.17-6.83,0.05-6.85,0.04c-3.82-2.34-8.02-4.74-12.6-3.55
		c-1.81,0.47-3.47,1.43-4.91,2.65c-0.3,0.25-0.68,0.77-1.02,0.94c-0.67,0.35-1.01-0.21-1.48-0.64c-0.68-0.63-1.5-1.03-2.39-1.24
		c-1.99-0.47-4.07-0.06-6.03,0.34c-2.6,0.54-5.19,1.13-7.78,1.76c-2.46,0.6-4.91,1.24-7.34,1.92c-2.26,0.63-4.75,1.11-6.86,2.18
		c-1.6,0.81-3.1,2.13-3.55,3.98c-0.2,0.82-0.29,1.69-0.31,2.57c-0.06-0.01-0.13-0.02-0.2-0.03c-2.64-0.91-5.7,0.7-7.75,2.5
		c-1.47,1.29-2.63,2.9-3.78,4.49c-0.73,1-1.45,2.02-2.31,2.91c-0.97,1.01-2.19,1.67-3.41,2.28c-3.57,1.78-7.09,3.32-9.59,6.66
		c-1.47,1.96-2.91,4.56-3.47,7.21c-1.38-0.03-2.67,0.66-3.77,1.54c-1.4,1.13-2.41,2.54-2.97,4.29c-0.6,1.88-0.76,3.91-0.96,5.87
		c-0.1,1-0.3,2.06-0.24,3.06c0.01,0.24,0.06,0.47,0.13,0.67c-6.8,4.77-5.62,12.03-5.61,12.12c0.28,6.93-3.41,15.94-4.74,20.67
		c-1.34,4.77-1.61,9.8-0.88,14.7c0.03,0.17,1.32,3.17,1.54,5.32c0.22,2.13,0.91,4.37,2.68,5.66c0.73,0.53,1.72,0.94,2.63,0.8
		c0.94-0.15,1.84-0.9,2.46-1.62c0.63-0.73,0.98-1.64,1.34-2.53c0.46-1.17,2.84-7.32,2.81-7.62c-0.2-2.15,5.46-9.3,5.99-9.15
		c0.02,1.02,0.18,2.03,0.53,3.02c0.03,0.09,1.76-0.86,1.6-1.3c-0.33-0.93-0.27-6.04,0.26-7.46c0.45-1.2,5.15-5.97,5.19-6.05
		c1.05-2.35,0.16-3.89,0.72-5.59c0.41-1.24,1.09-2.52,2.1-3.35c0.81-0.4,1.62-0.79,2.45-1.15c0.16-0.07,3.33-2.65,2.55-4.29
		c0.54-0.51,1.85-0.69,2.68-0.94c4.95-1.49,5.9-7.62,7.85-10.92c0.24-0.41,2.31-1.64,2.36-2.19c0,0,2.06-8.75,4.62-11.76
		c1.37-1.61,2.85-3.12,4.31-4.64c0.74-0.78,1.45-1.62,2.24-2.35c0.56-0.52,1.15-0.69,1.76-0.66c0.54,0.21,1.96,0.54,2.1,0.6
		c0.12,0.05,2.49-0.23,3.51-0.54c1.97-0.6,3.85-1.51,5.8-2.16c2.03-0.67,4.1-1.19,6.2-1.55c4.13-0.7,8.32-0.78,12.47-0.29
		c0.33,0.04,0.85-0.48,1.07-0.69c0.02-0.01,0.06-0.06,0.11-0.11c0.58,0.1,1.2,0.13,1.74,0.16c3.89,0.2,8.08-0.93,11.79,0.71
		c1.46,0.65,2.7,1.7,4.08,2.5c0.16,0.42,0.37,0.81,0.7,1.14c0.88,0.9,2.18,1.21,3.35,1.42c1.65,0.3,3.27,0.54,4.87,1.08
		c1.65,0.56,3.15,1.5,4.8,2.06c1.5,0.52,2.88,0.26,4.14-0.4c-0.04,0.06-0.08,0.12-0.1,0.19c-0.49,1.65,0.25,3.45,1.81,3.99
		c0.97,0.33,2.44-0.13,2.46,0.02c0.25,1.84-0.22,3.69,0.01,5.53c0.24,1.99,1.71,2.87,2.68,4.44c0.5,0.81,0.84,1.74,0.96,2.7
		c0.08,0.61-0.12,1.68,0.75,1.61c0.68-0.05,1.2-0.8,1.89-0.92c0.64-0.11,1.26,0.11,1.76,0.5c-1.25,0.86-2.34,2-3.01,3.37
		c-1.03,2.1-0.82,4.54,0.35,6.48c-2.62,1.2-4.22,4.06-6.37,5.91c-1.35,1.16-2.83,2.17-4.29,3.17c-1.22,0.83-4.71,0.16-4.94-0.17
		c-0.36-0.53-0.83-0.65-1.43-0.68c-1.54-0.08-3.09,0.02-4.61,0.28c-0.39,0.07-0.78,0.42-1.07,0.69c-0.06,0.06-0.14,0.12-0.2,0.19
		c-1.11-1.48-2.98-2.32-4.79-1.96c-0.59,0.12-1.65,0.45-2.06,0.7c-1.45,0.93-2.65,2.17-3.22,3.84c0,0.01-0.01,0.02-0.02,0.04
		c0,0.01,0,0.01,0,0.01c-0.05,0.15-0.1,0.3-0.14,0.45c-0.49,2.01-0.18,4.2,0.55,6.1c1.71,4.48,5.27,7.87,9.32,10.09
		c2.01,1.1,4.15,1.93,6.34,2.54c1.11,0.31,2.24,0.56,3.38,0.75c1.23,0.2,2.66,0.2,3.73,0.94c1.03,0.72,0.97,1.87,1.28,2.98
		c0.35,1.23,1.29,1.9,2.5,2c2.45,0.19,4.86-2.11,6.75-3.42c2.76-1.92,5.79-3.67,8.3-5.94c1.71-1.54,3.33-4.05,1.92-6.3l1.05-0.58
		c0.09,0,0.18,0.01,0.27,0c0.02,0,0.04-0.02,0.06-0.02c0.85,0.73,2.07,0.88,3.14,0.58c1.67-0.46,3.17-1.85,4.25-3.19
		c2.35-2.93,4.19-6.41,5.72-9.88c0.14-0.09,0.29-0.19,0.43-0.3c1.33-1.02,2.08-2.23,2.23-3.97C168.27,72,168.15,69.8,168.16,67.66z
		 M29.99,77.36c-1.23,0.75-2.48,1.86-3.85,2.28c-1.38,0.43-2.85-0.04-4.12-0.65c-1.93-0.93-3.78-2.44-6.01-2.43
		c-1.74,0.01-3.35,2.03-3.13,1.74c0.47-0.61,1.96-0.44,2.62-0.31c1.13,0.21,2.16,0.79,3.16,1.34c1.62,0.9,3.37,1.97,5.28,1.8
		c1.84-0.16,3.38-1.55,4.91-2.5c0.9-0.56-0.33,3.24-0.02,6.11c-0.79,0.43-1.51,1.18-2,1.76c-1.03,1.23-1.91,2.67-2.65,4.1
		c-0.83,1.61-1.41,3.38-1.59,5.18c-0.75,0.21-1.45,0.66-2.06,1.16c-1.11,0.9-5.35,5.19-5.43,5.24c-0.19,0.14-0.91,0.6-0.9,0.91
		c0.08,2.71-0.19,5.42-0.83,8.05c-0.32,1.31-0.73,2.6-1.23,3.86c-0.22,0.55-5.32-1.44-5.73-3.61c-0.51-2.74,0-11.05,1.41-10.69
		c0.45,0.12,1.59-1.3,1.48-1.33c-1.42-0.37-2.8,0.74-3.74,1.74c-0.49,0.53-0.82,1.14-1.09,1.78c-0.4-4.38,0.01-8.8,1.26-13.01
		c0.83-2.81,2.07-5.49,3.03-8.25l0.91-1.23c0.49-0.66,0.72-1.47,0.74-2.3c0.05-1.41,0.49-2.85,0.53-4.26
		c0.04-1.61,0.25-2.23,0.29-3.84c1.91-1.11,3.04-1.23,4.98,0.37c1.8,1.48,3.14,3.73,4.34,5.73c0.11,0.19,1.79-0.99,1.6-1.3
		c-0.78-1.3-1.62-2.55-2.54-3.75c-0.76-0.99-5.47-5.77-6.58-6.36c-2.18-1.15,6.58-7.04,7.51-6.7c1.21,0.44,2.35,1.12,3.43,1.83
		c2.03,1.32,3.9,2.91,5.56,4.7c2.06,2.22,5.84,9.15,6.1,9.84C35.25,74.55,31.1,76.68,29.99,77.36z M166.33,76.32
		c-0.86,3.75-3.22-6.32-1.13-8.79c0.29-0.34,0.1-0.27-0.17-0.22c-0.37,0.07-0.89,0.63-1.13,0.92c-1.69,2-3.39,4-5.08,6
		c-0.7,0.83-1.39,1.73-2.18,2.48c-1.21,1.13-2.66,1.47-4.24,1.63c-1.94,0.2-3.94,0.13-5.78,0.86c-1.24,0.49-5.7,2.98-4.24,2.62
		c1.32-0.32,2.39-1.21,3.69-1.57c2.53-0.71,5.25-0.22,7.73-1.21c2.63-1.05,4.62-3.49,6.35-5.51c0.38-0.44,1.11-0.6,1.58-0.27
		c2.2,1.56-0.08,6.51,2.33,5.79c-1.33,3.06-2.92,5.98-4.78,8.73c-0.75,1.1-1.46,2.27-2.84,2.48c-1.16,0.18-2.65-1.67-3.82-0.86
		c-0.29-0.14-6.97,4.45-9.73,5.98c-0.41,0.23-0.83,0.54-1.13,0.92c-0.21,0.26-0.18,0.41,0.17,0.22c0,0,7.27-3.95,7.3-3.91
		c0.63,0.89,0.71,0.79,0.44,1.87c-0.41,1.6-1.96,3.22-3.21,4.09c-2.17,1.52-4.5,3.01-6.68,4.52c-1.72,1.2-4.37,4.23-6.24,1.79
		c-0.6-0.78-0.52-1.82-0.82-2.72c-0.32-0.95-1.03-1.45-1.93-1.74c-1.77-0.57-3.71-0.61-5.52-1.07c-1.93-0.49-3.82-1.16-5.63-2.03
		c-3.37-1.62-6.49-3.95-8.67-7.1c-1.16-1.68-2.12-3.61-2.51-5.64c-0.19-1.01,6.7-5.41,7.48-3.9c-0.28,0.4-0.53,0.82-0.7,1.26
		c-0.83,2.15-0.06,4.41,1.17,6.21c1.48,2.17,3.46,4.04,5.43,5.72c1.75,1.49,3.88,3.16,6.21,2.04c0.4-0.19,0.87-0.55,1.13-0.92
		c0.2-0.28,0.19-0.39-0.17-0.22c-1.77,0.85-3.76-0.69-5.13-1.82c-1.48-1.23-2.88-2.56-4.18-3.99c-1.32-1.46-2.63-3.12-3.08-5.12
		c-0.16-0.74,0.5-3.23,0.53-3.38c0.01-0.06,1.35-0.65,1.83-0.59c1.56,0.18,6.89,1.04,7.96,0.53c1.64-0.78,3.16-1.98,4.63-3.06
		c1.48-1.08,2.91-2.23,4.21-3.54c1.14-1.15,2.13-3.04,3.71-3.52c0.29-0.09,1.08-0.16,1.22,0.01c0.21,0.25,1.77-1.1,1.6-1.3
		c-2.12-2.45-2.68-7.72,0.87-9.25c0.18-0.08,1.65-1.06,1.43-1.29c-0.91-0.95-2.2-1.07-3.34-0.46c-0.32,0.17-0.78,0.67-1.19,0.45
		c-0.26-0.14-0.16-0.91-0.17-1.07c-0.09-1.04-0.38-2.03-0.9-2.93c-0.92-1.59-2.45-2.47-2.75-4.43c-0.29-1.89,0.02-5.91,0.32-6.18
		c3.15-2.83,9.5-9.62,9.12-9.63c-0.37,0-1.02,0.7-1.25,0.96c-2.37,2.55-4.79,5.04-7.27,7.46c-0.47,0.46-0.95,1.07-1.53,1.35
		c-0.65,0.31-1.44,0.27-2.08-0.05c-1.3-0.65-1.86-2.23-1.44-3.68c0.45-0.38,0.88-0.8,1.29-1.24c2.21-2.36,3.39-5.49,3.17-8.77
		c0.01,0.09-1.64,0.72-1.6,1.3c0.11,1.71-0.16,3.41-0.81,4.99c-0.78,1.89-2.26,4.19-4.44,4.28c-1.81,0.08-3.47-1.09-5.08-1.78
		c-1.57-0.67-8.84-3.27-10.38-4.17c0-0.01-0.01-0.01-0.01-0.02c-0.29-0.74-0.37-1.59-0.36-2.47c0.03-3.84,0.84-7.68,2.19-11.25
		c0.09-0.24-3.64,8.13-3.78,11.77c-0.01,0.22-0.02,0.45-0.02,0.68c-0.81-0.55-1.63-1.09-2.55-1.45c-3.4-1.32-7.11-0.52-10.63-0.56
		c-1.5-0.02-3.95,0.11-4.68-1.56c-0.75-1.71-0.27-4.3,0.07-6.08c0.75-3.93-1.02-2.47-1.69,1.65c-0.27,1.67-0.58,3.74-0.09,5.4
		c0.13,0.45,0.35,0.78,0.64,1.04c-3.36-0.25-6.73-0.15-10.06,0.38c-3.97,0.63-7.63,1.99-11.39,3.39c-1.66,0.62-3.41,0.93-5.03,0.73
		c-0.55-0.21-1.1-0.38-1.66-0.41c-1.19-0.47-2.25-1.31-3.09-2.63c-1-1.59-1.06-3.5-1.76-5.22c-0.67-1.65-4.92-2.73-4.84-2.68
		c1.48,1.02,2.66,2.43,3.32,4.16c0.66,1.73,0.73,3.63,1.79,5.2c0.6,0.89,1.32,1.54,2.12,2.02c-0.47,0.33-5.24,5.15-7.14,7.21
		c-0.5,0.54-2.49,2.25-2.58,2.33c-0.7,0.64-2.01,0.68-2.88,0.58c-0.95-0.11-1.84-0.48-2.61-1.06c-0.75-0.55-1.38-1.28-1.86-2.08
		c-0.45-0.75-0.61-1.69-1.09-2.4c-0.95-1.4-3.76-0.33-4.94,0.19c-1.79,0.79-3.4,1.97-4.96,3.16c-0.14,0.1-0.99,0.7-0.9,0.91
		c0.09,0.22,0.59-0.17,0.71-0.26c1.81-1.38,3.72-2.82,6-3.19c1-0.16,2.2-0.27,2.69,0.83c0.41,0.92,0.7,1.82,1.3,2.64
		c0.79,1.08,0.3,4.16-0.32,4.26c-1.32,0.2-2.54,0.77-3.65,1.53c-2.11,1.44-2.03,6.72,0.73,5.1c0.4-0.23,0.86-0.53,1.13-0.92
		c0.18-0.25,0.19-0.43-0.17-0.22c-1.5,0.88-3.12-2.98-0.78-3.84c1.21-0.44,2.47-0.38,3.73-0.55c0.71-0.09,1.35-0.31,1.95-0.63
		c0,0,0.01,0,0.01,0c1.74,0.1,1.43,7.03,1.13,7.44c-1.27,1.77-2.28,3.79-3.39,5.67c-0.24,0.41-0.48,0.81-0.72,1.22
		c-0.81,1.38-2.04,2.44-3.5,3.01c-1.62,0.63-3.12,1.55-4.45,2.7c-1.71-3.48-4.04-6.62-6.89-9.2c-2.14-1.93-4.71-3.9-7.45-4.77
		c-1.78-0.57-4.84,0.44-5.16,0.61c-0.22,0.12-0.44,0.25-0.65,0.38c-0.43-0.8-0.06-2.44,0-3.06c0.15-1.55,0.3-3.12,0.57-4.66
		c0.25-1.39,0.63-2.83,1.43-4c0.78-1.15,2.15-1.45,3.44-1.16c0.14,0.03,0.35-0.08,0.54-0.23c-0.13,1.26-0.04,2.52,0.37,3.72
		c1.52,4.37,6.6,5.24,10.48,5.73c0.33,0.04,0.85-0.48,1.07-0.69c0.07-0.06,0.64-0.62,0.41-0.65c-3.09-0.38-6.65-0.9-8.93-3.32
		c-2.84-3.02-1.87-7.51-0.22-10.89c1.03-2.1,2.34-4.18,4.32-5.42c1.57-0.98,3.31-1.66,4.95-2.5c2.94-1.49,7.63-5.28,7.88-2.91
		c0.14,1.37,4.59,6,5.62,5.87c1.36-0.17-3.72-5.61-3.94-6.68c-0.23-1.08-0.08-2.26,0.26-3.3c0.63-1.93,2.41-4.04,4.46-4.32
		c4.26-0.58,4.23,3.36,4.13,3.87c-0.05,0.26,2.05-1.51,2.01-1.7c-0.07-0.37-0.05-3.15-0.37-3.54c-0.03-0.03-0.08-0.05-0.11-0.08
		c-0.07-1.07-0.06-2.14,0.06-3.2c0.12-1.01,0.34-2.15,1.24-2.68c0.85-0.5,1.94-0.69,2.87-0.97c4.59-1.36,9.22-2.58,13.88-3.65
		c0,0,0,0,0,0c-3.12,1.72-5.77,3.99-6.46,7.79c-0.36,2-0.16,4.08,0.26,6.05c0.35,1.64,1.09,4.07,3.18,3.67
		c0.4-0.08,0.78-0.42,1.07-0.69c0.06-0.06,0.61-0.68,0.41-0.65c-1.6,0.31-2.45-1.29-2.82-2.64c-0.45-1.67-0.73-3.44-0.67-5.17
		c0.04-1.11,0.5-2.16,1.21-3c7.39-8.73,12.94-6.43,13.32-6.32c1.09,0.36,2.45,5.84,2.34,7.12c-0.09,1.19-0.56,2.2-1.17,3.2
		c-1.33,2.21-2.69,4.4-4.04,6.6c-0.23,0.37,4.41-5.59,5.78-7.96c0.46-0.79,1.57-3.52,1.34-4.7c0.01-0.03-0.61-2.85-0.66-3.16
		c0.57,0.44,1.54,2.25,2.26,1.88c0.56-0.28,1.32-2.08,1.77-2.52c0.98-0.95,1.3-1.84,2.58-2.31c4.71-1.72,13.05,3.73,13.17,3.71
		c2.29-0.33,4.68-0.6,7-0.44c0.55,0.04,1.11,0.13,1.65,0.28c-3.13,1.64-5.94,4.23-7.67,7.39c-0.5,0.91-0.89,1.9-1.52,2.72
		c-0.5,0.65-1.42,0.9-2.15,1.21c-1.62,0.68-3.13,1.53-4.3,2.9c-0.25,0.29,2.53-1.44,3.13-1.67c3.91-1.48,4.9-0.21,6.06-0.17
		c0.13,0,1.6-1.33,1.48-1.33c-0.48-0.02-1.81-0.1-2.26-0.23c-0.61-0.2-0.27-1.88,0.11-2.57c0.87-1.55,1.59-3.1,2.76-4.45
		c1.13-1.31,4.66-3.38,4.92-3.64c1.17,0.41,2.22,1.13,2.85,2.29c0.26,0.47,0.21,1.5,0.11,1.56c-0.87,0.49-1.69,1.17-2.35,1.93
		c-1.15,1.33-1.74,3.05-1.45,4.83c0.02,0.15,0.42-3.46,1.91-4.2c0.82-0.4,2.94-1.67,3.42-2.49c0.1-0.17,0.52-0.96,0.53-1.15
		c2.51-0.9,3.46-1.49,8.43-0.2c0.64,0.17,1.26,0.45,1.75,0.91c1.31,1.2,1.92,2.74,2.86,4.25c0.48,0.78,1.09,1.43,1.97,1.72
		c1.03,0.33,2.11,0.15,3.09,0.66c0.02,0.01-4.41-0.53-1.03,10.54c0.09,0.3,0.45,0.22-0.08-4.69c-0.2-1.87,0.61-2.86,0.89-3.64
		c0.63-1.74,4.02-0.75,5.46,0.15c0.7,0.44,1.72,0.86,2.05,1.69c0.27,0.69,0.08,1.47-0.14,2.17c-0.58,0.36-1.12,0.85-1.51,1.41
		c-0.24,0.35-0.41,0.77-0.43,1.19c-0.02,0.45,0.11,0.88,0.47,1.16c0.08,0.06,0.27-0.05,0.32-0.08c0.21-0.11,0.42-0.26,0.6-0.41
		c0.07-0.05,0.82-0.7,0.68-0.81c-0.32-0.26-0.49-0.66-0.46-1.08c0.01-0.21,0.59-0.66,0.81-0.67c3.66-0.16,5.48,2.45,6.68,3.9
		c0.3,0.36,0.62,0.71,0.98,1.01c0.33,0.27,0.76,0.5,0.99,0.88c0.53,0.89,0.19,2.5,0.16,3.49c-0.06,2.19,0.18,4.68-0.52,6.78
		c-0.62,1.85-2.12,3.21-2.72,5.08c-0.08,0.24,3.8-4.48,4.39-6.42c0.69-2.29,0.42-5.02,0.49-7.4c0-0.14,0.01-0.29,0.03-0.45
		l2.46,2.46c0.34,0.34,0.74,0.92,1.2,1.1c0.41,0.17,0.73-0.04,1.14-0.06c2.71-0.14,2.87,4.58,2.79,6.43
		c-0.13,2.83-0.44,5.67-0.81,8.48c-0.16,1.24-0.28,2.54-0.76,3.7c-0.7,1.67-4.7,5.12-6.16,4.91c-2.26-0.32-3.39-2.95-3.64-5.03
		c-0.02-0.14-0.86,0.44-0.92,0.49c-0.19,0.15-0.72,0.51-0.68,0.81c0.33,2.78,2.2,5.76,5.27,4.96c1.19-0.31,2.3-0.98,3.35-1.69
		c-1.89,2.54-2.92,5.67-2.54,9.02c0.02,0.14,0.86-0.44,0.92-0.49c0.19-0.15,0.72-0.51,0.68-0.81c-0.34-2.92,7.31-9.38,7.61-8.41
		c1.04,3.37,0.92,7,0.92,10.46c0,1.19-0.02,2.38-0.02,3.57C166.54,73.36,166.65,74.91,166.33,76.32z"/>
	<path class="st5" d="M74.26,57.75c0,0,21.26-4.04,28.63,11.86c1.86,4.02,0.37,4.9-2.38,2.01c-1.72-1.81-10.44-9.74-17.69-9.06
		c0,0-8.08-2.63-13.68,13.67c0,0-5.11,12.16-14.84,3.16c0,0-7.05-15.08,14.35-26.51s49.66-4.96,54,5.35
		c1.95,4.62,1.95,8.93-8.51,13.83l-6.08,1.98c0,0,15.41-14.43-5.35-20.19C102.72,53.86,86.91,50.45,74.26,57.75z"/>
</g>
</svg>
